# xmcd
#
# Track frame offsets: 
#        150
#        18867
#        34795
#        58157
#        75367
#        89240
#        109590
#        124825
#
# Disc length: 1866 seconds
#
# Revision: 0
# Processed by: cddbd v1.4PL0 Copyright (c) Steve Scherf et al.
# Submitted via: ExactAudioCopy v0.90b3
#
DISCID=5f074808
DTITLE=Lenzi Brothers - Grilo Verde
DYEAR=2002
DGENRE=Rock and Roll
TTITLE0=Grilo Verde
TTITLE1=Pára-Quedas
TTITLE2=Siga a Vida
TTITLE3=Dia de Cão
TTITLE4=Carta Marcada
TTITLE5=Quem Sou
TTITLE6=Flor da Pele
TTITLE7=Voar Longe
EXTD=
EXTT0=
EXTT1=
EXTT2=
EXTT3=
EXTT4=
EXTT5=
EXTT6=
EXTT7=
PLAYORDER=
